<?xml version="1.0" encoding="UTF-8"?><svg id="_레이어_1" xmlns="http://www.w3.org/2000/svg" viewBox="0 0 510.21 481.55"><defs><style>.cls-1{font-family:AdobeMyungjoStd-Medium-KSCpc-EUC-H, 'Adobe Myungjo Std';font-weight:500;}.cls-2,.cls-3{fill:#005bd1;}.cls-3{font-size:129.9px;}.cls-4{font-family:SquaredanceFontV1-Regular, 'Squaredance Font V1';}</style></defs><text class="cls-3" transform="translate(16.89 386.03)"><tspan class="cls-4" x="0" y="0">From</tspan><tspan class="cls-1" x="348.13" y="0"> </tspan><tspan class="cls-4"><tspan x="-16.89" y="95.52">Whale</tspan></tspan></text><path class="cls-2" d="M408.19,358.29c29.69-42.73,27.14-98.41,7.59-144.69-18.52-43.86-50.24-82.39-87.65-111.55-18.74-14.62-39.42-27.08-61.47-35.96-24.99-10.11-51.38-14.69-78.31-14.32-29.7,.39-59.01,5.78-87.87,12.3-11.33,2.58-23.11,5.34-32.61,12.36-9.5,7.02-14.63,17.51-15.06,28.92-1.04,27.38,18.29,52.26,37.86,69.35,20.79,18.16,46.89,29.94,74.23,33.7l-2.9-10.18c-10.64,9.2-13.9,23.82-10.47,37.18,3.81,15.01,14.53,25.79,27.89,32.98,14.38,7.73,31.12,11.31,47.15,13.74,17.42,2.66,35.2,3.25,52.76,2.08,35.54-2.41,70.75-12.58,102.02-29.63,23.02-12.54,43.43-28.15,55.45-52,5.44-10.8,8.78-23.45,6.67-35.57-2.33-13.5-11.26-24.1-22.77-31.04-3.27-1.99-7.06-1.16-8.74,2.45-9.14,19.25,.02,43.27,18.87,52.52,6.62,3.26,10.89-7.4,4.3-10.62-13.54-6.64-18.86-24.29-12.55-37.6l-8.74,2.45c8.35,5,15.7,11.96,17.95,21.76,2.03,8.77,.22,17.83-3.15,26.02-8.19,20.02-24.16,34.48-42.21,45.6-52.81,32.49-120.57,44.07-180.72,27.72-14.43-3.93-30.4-10.19-38.85-23.36-6.75-10.55-7.91-26.83,2.26-35.66,3.76-3.26,2.13-9.48-2.9-10.18-22.42-3.04-43.73-12.03-61.68-25.76-17.96-13.72-34.14-31.81-39.05-53.34-2.33-10.19-1.81-21.36,5.8-29.29,7.61-7.93,19.02-10.5,29.21-12.83,26.58-6.09,53.61-11.33,80.89-12.49,25.35-1.08,50.6,2.13,74.47,10.88,19.93,7.29,38.62,17.6,55.89,29.93,36.11,25.73,66.98,60.29,86.98,99.93,22.98,45.57,31,103.18,.3,147.37-4.2,6.05,4.97,12.96,9.17,6.86h0v-.04Z"/><path class="cls-2" d="M496.58,35.19c-3.48,4.18-6.49,8.6-9.08,13.38-2.3,4.27-6.75,11.53-6.06,16.57,.57,4.03,5.08,6.97,8.85,7.33,4.41,.43,8.79-1.87,11.93-4.74,13.85-12.71,7.52-37.21-2.49-50.21-11.98-15.49-31.15-21.01-49.73-15.34-19.73,6-34.73,21.77-48.24,36.56-31.73,34.73-61.93,73.21-104.17,95.73-9.38,5-19.3,9.28-29.55,12.13-10.25,2.86-23.4,6.46-33.69,2.7-6.79-2.51-13.59-12.53-5.01-17.31,6.9-3.82,15.4-1.19,21.11,3.39,9.08,7.31,14.9,17.87,23.84,25.4,8.94,7.53,19.38,11.69,30.48,13.82,23.36,4.5,47.85-.72,70.54-6.38,7.09-1.76,5.39-13.11-1.77-11.32-19.05,4.77-39.02,9.24-58.78,7.5-8.99-.77-17.97-2.92-25.88-7.36-8.81-4.98-14.76-12.74-21.2-20.32-10.39-12.27-25.35-22.96-42-15.64-7.33,3.19-12.22,10.25-11.81,18.37,.45,8.78,6.82,16.28,14.6,19.83,9.97,4.57,21.89,2.94,32.28,.87,10.39-2.07,19.58-5.09,28.85-9.06,18.49-7.91,35.44-19.22,50.81-32.15,17.03-14.31,32.26-30.63,47.08-47.11,14.82-16.48,27.61-33.01,44.18-46.33,15.01-12.08,36.07-20.65,53-7.09,7.18,5.75,12.16,14.32,13.5,23.4,.66,4.31,.6,9.18-.88,13.36-.62,1.74-1.64,3.23-3.05,4.42-.68,.58-1.35,1-2.15,1.33-.93,.39,.75,1.51-.44-.17l.84,5.71c2.85-9.02,7.24-17.09,13.34-24.35,4.77-5.68-4.44-12.51-9.17-6.86h0l-.07-.05Z"/><path class="cls-2" d="M112.28,115.23c12.22,1.41,14.41-17.57,2.19-18.98s-14.41,17.57-2.19,18.98h0Z"/><path class="cls-2" d="M78.82,157.34c12.18,.44,24.31-3.39,33.65-11.35,3.03-2.61,4.02-7.54,1.24-10.74-2.78-3.21-7.5-4.02-10.74-1.24-.86,.75-1.74,1.45-2.7,2.11-.46,.33-.92,.66-1.42,.95-.25,.16-.5,.33-.71,.46-.66,.42-.49,.29,.58-.36-1.05,.42-2.01,1.11-3.03,1.61s-1.95,.89-2.95,1.28c-.48,.18-.93,.35-1.4,.49-.56,.2-2.49,.56-.13,.1-1.1,.22-2.22,.59-3.32,.81-2.24,.43-4.5,.67-6.82,.75l2.04-.03c-.85,.02-1.69,0-2.57-.03-3.98-.15-8.16,2.37-8.47,6.72-.25,3.86,2.43,8.32,6.72,8.47h.04Z"/><path class="cls-2" d="M385,386.21c12.22,1.41,14.4-17.57,2.18-18.98-12.22-1.41-14.41,17.57-2.19,18.98h.01Z"/></svg>