{
  "accessors": [
    {
      "bufferView": 0,
      "componentType": 5125,
      "count": 2997,
      "type": "SCALAR"
    },
    {
      "bufferView": 1,
      "componentType": 5126,
      "count": 629,
      "max": [
        1.0,
        0.246667668223381,
        0.239660263061523
      ],
      "min": [
        -1.0,
        -0.246667683124542,
        -0.239660263061523
      ],
      "type": "VEC3"
    },
    {
      "bufferView": 2,
      "componentType": 5126,
      "count": 629,
      "type": "VEC3"
    },
    {
      "bufferView": 3,
      "componentType": 5126,
      "count": 629,
      "type": "VEC2"
    }
  ],
  "asset": {
    "generator": "Substance Painter 2019.3.3",
    "version": "2.0"
  },
  "bufferViews": [
    {
      "buffer": 0,
      "byteLength": 11988,
      "target": 34963
    },
    {
      "buffer": 0,
      "byteLength": 7548,
      "byteOffset": 11988,
      "target": 34962
    },
    {
      "buffer": 0,
      "byteLength": 7548,
      "byteOffset": 19536,
      "target": 34962
    },
    {
      "buffer": 0,
      "byteLength": 5032,
      "byteOffset": 27084,
      "target": 34962
    }
  ],
  "buffers": [
    {
      "byteLength": 32116,
      "uri": "Luke.bin"
    }
  ],
  "images": [
    {
      "uri": "Luke_baseColor.png"
    },
    {
      "uri": "Luke_occlusionRoughnessMetallic.png"
    },
    {
      "uri": "Luke_normal.png"
    },
    {
      "uri": "Luke_emissive.png"
    }
  ],
  "materials": [
    {
      "alphaMode": "OPAQUE",
      "emissiveFactor": [
        1.0,
        1.0,
        1.0
      ],
      "emissiveTexture": {
        "index": 3
      },
      "name": "Luke",
      "normalTexture": {
        "index": 2
      },
      "occlusionTexture": {
        "index": 1
      },
      "pbrMetallicRoughness": {
        "baseColorTexture": {
          "index": 0
        },
        "metallicRoughnessTexture": {
          "index": 1
        }
      }
    }
  ],
  "meshes": [
    {
      "name": "Uni",
      "primitives": [
        {
          "attributes": {
            "NORMAL": 2,
            "POSITION": 1,
            "TEXCOORD_0": 3
          },
          "indices": 0,
          "material": 0,
          "mode": 4
        }
      ]
    }
  ],
  "nodes": [
    {
      "children": [
        1
      ],
      "name": "root",
      "scale": [
        7.11023044586182,
        7.11023044586182,
        7.11023044586182
      ],
      "translation": [
        -0.227267742156982,
        0.0488202571868896,
        0.0
      ]
    },
    {
      "children": [
        2
      ],
      "name": "Uni"
    },
    {
      "mesh": 0,
      "name": "Uni"
    }
  ],
  "samplers": [
    {
      "magFilter": 9729,
      "minFilter": 9985,
      "wrapS": 10497,
      "wrapT": 10497
    }
  ],
  "scene": 0,
  "scenes": [
    {
      "name": "Scene",
      "nodes": [
        0
      ]
    }
  ],
  "textures": [
    {
      "sampler": 0,
      "source": 0
    },
    {
      "sampler": 0,
      "source": 1
    },
    {
      "sampler": 0,
      "source": 2
    },
    {
      "sampler": 0,
      "source": 3
    }
  ]
}