{
  "accessors": [
    {
      "bufferView": 0,
      "componentType": 5125,
      "count": 3192,
      "type": "SCALAR"
    },
    {
      "bufferView": 1,
      "componentType": 5126,
      "count": 653,
      "max": [
        1.0,
        0.210603222250938,
        0.27812671661377
      ],
      "min": [
        -1.0,
        -0.210603192448616,
        -0.27812671661377
      ],
      "type": "VEC3"
    },
    {
      "bufferView": 2,
      "componentType": 5126,
      "count": 653,
      "type": "VEC3"
    },
    {
      "bufferView": 3,
      "componentType": 5126,
      "count": 653,
      "type": "VEC2"
    }
  ],
  "asset": {
    "generator": "Substance Painter 2019.3.3",
    "version": "2.0"
  },
  "bufferViews": [
    {
      "buffer": 0,
      "byteLength": 12768,
      "target": 34963
    },
    {
      "buffer": 0,
      "byteLength": 7836,
      "byteOffset": 12768,
      "target": 34962
    },
    {
      "buffer": 0,
      "byteLength": 7836,
      "byteOffset": 20604,
      "target": 34962
    },
    {
      "buffer": 0,
      "byteLength": 5224,
      "byteOffset": 28440,
      "target": 34962
    }
  ],
  "buffers": [
    {
      "byteLength": 33664,
      "uri": "Moby.bin"
    }
  ],
  "images": [
    {
      "uri": "Moby_baseColor.png"
    },
    {
      "uri": "Moby_occlusionRoughnessMetallic.png"
    },
    {
      "uri": "Moby_normal.png"
    },
    {
      "uri": "Moby_emissive.png"
    }
  ],
  "materials": [
    {
      "alphaMode": "OPAQUE",
      "emissiveFactor": [
        1.0,
        1.0,
        1.0
      ],
      "emissiveTexture": {
        "index": 3
      },
      "name": "Moby",
      "normalTexture": {
        "index": 2
      },
      "occlusionTexture": {
        "index": 1
      },
      "pbrMetallicRoughness": {
        "baseColorTexture": {
          "index": 0
        },
        "metallicRoughnessTexture": {
          "index": 1
        }
      }
    }
  ],
  "meshes": [
    {
      "name": "Moby",
      "primitives": [
        {
          "attributes": {
            "NORMAL": 2,
            "POSITION": 1,
            "TEXCOORD_0": 3
          },
          "indices": 0,
          "material": 0,
          "mode": 4
        }
      ]
    }
  ],
  "nodes": [
    {
      "children": [
        1
      ],
      "name": "root",
      "scale": [
        11.1050834655762,
        11.1050834655762,
        11.1050834655762
      ],
      "translation": [
        -0.203276634216309,
        1.59577345848083,
        0.0
      ]
    },
    {
      "children": [
        2
      ],
      "name": "Moby"
    },
    {
      "mesh": 0,
      "name": "Moby"
    }
  ],
  "samplers": [
    {
      "magFilter": 9729,
      "minFilter": 9985,
      "wrapS": 10497,
      "wrapT": 10497
    }
  ],
  "scene": 0,
  "scenes": [
    {
      "name": "Scene",
      "nodes": [
        0
      ]
    }
  ],
  "textures": [
    {
      "sampler": 0,
      "source": 0
    },
    {
      "sampler": 0,
      "source": 1
    },
    {
      "sampler": 0,
      "source": 2
    },
    {
      "sampler": 0,
      "source": 3
    }
  ]
}